<svg width="69" height="60" viewBox="0 0 69 60" fill="none" xmlns="http://www.w3.org/2000/svg">
<mask id="path-1-inside-1_562_2909" fill="white">
<path fill-rule="evenodd" clip-rule="evenodd" d="M12.5151 60H69V0H0V47.4849L12.5151 60Z"/>
</mask>
<path fill-rule="evenodd" clip-rule="evenodd" d="M12.5151 60H69V0H0V47.4849L12.5151 60Z" fill="#19121C"/>
<path d="M69 60V61H70V60H69ZM12.5151 60L11.808 60.7071L12.1009 61H12.5151V60ZM69 0H70V-1H69V0ZM0 0V-1H-1V0H0ZM0 47.4849H-1V47.8991L-0.707108 48.192L0 47.4849ZM69 59H12.5151V61H69V59ZM68 0V60H70V0H68ZM0 1H69V-1H0V1ZM1 47.4849V0H-1V47.4849H1ZM-0.707108 48.192L11.808 60.7071L13.2222 59.2929L0.707108 46.7778L-0.707108 48.192Z" fill="#434343" mask="url(#path-1-inside-1_562_2909)"/>
<path fill-rule="evenodd" clip-rule="evenodd" d="M30.1599 27.1258L28.2856 29L30.1599 30.8743L38.1255 38.8399L39.9998 36.9656L32.0342 29L39.9998 21.0344L38.1255 19.1602L30.1599 27.1258Z" fill="#ADADAD"/>
</svg>
