<svg width="69" height="60" viewBox="0 0 69 60" fill="none" xmlns="http://www.w3.org/2000/svg">
<mask id="path-1-inside-1_562_2910" fill="white">
<path fill-rule="evenodd" clip-rule="evenodd" d="M56.4849 0H0V60H69V12.5151L56.4849 0Z"/>
</mask>
<path fill-rule="evenodd" clip-rule="evenodd" d="M56.4849 0H0V60H69V12.5151L56.4849 0Z" fill="#19121C"/>
<path d="M0 0V-1H-1V0H0ZM56.4849 0L57.192 -0.707107L56.8991 -1H56.4849V0ZM0 60H-1V61H0V60ZM69 60V61H70V60H69ZM69 12.5151H70V12.1009L69.7071 11.808L69 12.5151ZM0 1H56.4849V-1H0V1ZM1 60V0H-1V60H1ZM69 59H0V61H69V59ZM68 12.5151V60H70V12.5151H68ZM69.7071 11.808L57.192 -0.707107L55.7778 0.707107L68.2929 13.2222L69.7071 11.808Z" fill="#434343" mask="url(#path-1-inside-1_562_2910)"/>
<path fill-rule="evenodd" clip-rule="evenodd" d="M38.8401 30.8742L40.7144 29L38.8401 27.1257L30.8745 19.1601L29.0002 21.0344L36.9658 29L29.0002 36.9656L30.8745 38.8398L38.8401 30.8742Z" fill="#ADADAD"/>
</svg>
