<svg width="13" height="50" viewBox="0 0 13 50" fill="none" xmlns="http://www.w3.org/2000/svg">
<mask id="path-1-inside-1_3006_3847" fill="white">
<path fill-rule="evenodd" clip-rule="evenodd" d="M9.96179 50H12.766V0H3.33786e-05V40.0382L9.96179 50Z"/>
</mask>
<path d="M12.766 50V51H13.766V50H12.766ZM9.96179 50L9.25469 50.7071L9.54758 51H9.96179V50ZM12.766 0H13.766V-1H12.766V0ZM3.33786e-05 0V-1H-0.999967V0H3.33786e-05ZM3.33786e-05 40.0382H-0.999967V40.4525L-0.707073 40.7453L3.33786e-05 40.0382ZM12.766 49H9.96179V51H12.766V49ZM11.766 0V50H13.766V0H11.766ZM3.33786e-05 1H12.766V-1H3.33786e-05V1ZM1.00003 40.0382V0H-0.999967V40.0382H1.00003ZM-0.707073 40.7453L9.25469 50.7071L10.6689 49.2929L0.70714 39.3311L-0.707073 40.7453Z" fill="#F02323" mask="url(#path-1-inside-1_3006_3847)"/>
</svg>
