<svg width="14" height="50" viewBox="0 0 14 50" fill="none" xmlns="http://www.w3.org/2000/svg">
<mask id="path-1-inside-1_3006_3854" fill="white">
<path fill-rule="evenodd" clip-rule="evenodd" d="M3.57007 0H0.765869V50H13.5318V9.96176L3.57007 0Z"/>
</mask>
<path fill-rule="evenodd" clip-rule="evenodd" d="M3.57007 0H0.765869V50H13.5318V9.96176L3.57007 0Z" fill="#1A131D"/>
<path d="M0.765869 0V-1H-0.234131V0H0.765869ZM3.57007 0L4.27718 -0.707107L3.98428 -1H3.57007V0ZM0.765869 50H-0.234131V51H0.765869V50ZM13.5318 50V51H14.5318V50H13.5318ZM13.5318 9.96176H14.5318V9.54755L14.2389 9.25465L13.5318 9.96176ZM0.765869 1H3.57007V-1H0.765869V1ZM1.76587 50V0H-0.234131V50H1.76587ZM13.5318 49H0.765869V51H13.5318V49ZM12.5318 9.96176V50H14.5318V9.96176H12.5318ZM14.2389 9.25465L4.27718 -0.707107L2.86296 0.707107L12.8247 10.6689L14.2389 9.25465Z" fill="#F02323" mask="url(#path-1-inside-1_3006_3854)"/>
</svg>
