<svg width="24" height="24" viewBox="0 0 24 24" fill="none" xmlns="http://www.w3.org/2000/svg">
<path fill-rule="evenodd" clip-rule="evenodd" d="M12 21V21C16.971 21 21 16.971 21 12V12C21 7.029 16.971 3 12 3V3C7.029 3 3 7.029 3 12V12C3 16.971 7.029 21 12 21Z" stroke="#F02323" stroke-width="1.5" stroke-linecap="round" stroke-linejoin="round"/>
<path d="M14 14L12 12V9" stroke="#F02323" stroke-width="1.5" stroke-linecap="round" stroke-linejoin="round"/>
<path d="M5.5 12H6" stroke="#F02323" stroke-width="1.5" stroke-linecap="round" stroke-linejoin="round"/>
<path d="M18.5 12H18" stroke="#F02323" stroke-width="1.5" stroke-linecap="round" stroke-linejoin="round"/>
<path d="M7.76008 16.2399L7.40008 16.5999" stroke="#F02323" stroke-width="1.5" stroke-linecap="round" stroke-linejoin="round"/>
<path d="M16.2399 7.76008L16.5999 7.40008" stroke="#F02323" stroke-width="1.5" stroke-linecap="round" stroke-linejoin="round"/>
<path d="M12 18V18.5" stroke="#F02323" stroke-width="1.5" stroke-linecap="round" stroke-linejoin="round"/>
<path d="M12 5.5V6" stroke="#F02323" stroke-width="1.5" stroke-linecap="round" stroke-linejoin="round"/>
<path d="M16.2399 16.2399L16.5999 16.5999" stroke="#F02323" stroke-width="1.5" stroke-linecap="round" stroke-linejoin="round"/>
<path d="M7.40008 7.40008L7.76008 7.76008" stroke="#F02323" stroke-width="1.5" stroke-linecap="round" stroke-linejoin="round"/>
</svg>
