<svg display="none" xmlns="http://www.w3.org/2000/svg">
	<symbol id="arrow-prev" viewBox="0 0 69 60">
		<path d="M12.5151 60H69V0H0V47.4849L12.5151 60Z" />
		<path d="M69 60V61H70V60H69ZM12.5151 60L11.808 60.7071L12.1009 61H12.5151V60ZM69 0H70V-1H69V0ZM0 0V-1H-1V0H0ZM0 47.4849H-1V47.8991L-0.707108 48.192L0 47.4849ZM69 59H12.5151V61H69V59ZM68 0V60H70V0H68ZM0 1H69V-1H0V1ZM1 47.4849V0H-1V47.4849H1ZM-0.707108 48.192L11.808 60.7071L13.2222 59.2929L0.707108 46.7778L-0.707108 48.192Z" fill="#434343" />
		<path d="M30.1599 27.1258L28.2856 29L30.1599 30.8743L38.1255 38.8399L39.9998 36.9656L32.0342 29L39.9998 21.0344L38.1255 19.1602L30.1599 27.1258Z" fill="#ADADAD"/>
	</symbol>
	<symbol id="arrow-next" viewBox="0 0 69 60">
		<path d="M56.4849 0H0V60H69V12.5151L56.4849 0Z"/>
		<path d="M0 0V-1H-1V0H0ZM56.4849 0L57.192 -0.707107L56.8991 -1H56.4849V0ZM0 60H-1V61H0V60ZM69 60V61H70V60H69ZM69 12.5151H70V12.1009L69.7071 11.808L69 12.5151ZM0 1H56.4849V-1H0V1ZM1 60V0H-1V60H1ZM69 59H0V61H69V59ZM68 12.5151V60H70V12.5151H68ZM69.7071 11.808L57.192 -0.707107L55.7778 0.707107L68.2929 13.2222L69.7071 11.808Z" fill="#434343"/>
		<path d="M38.8401 30.8742L40.7144 29L38.8401 27.1257L30.8745 19.1601L29.0002 21.0344L36.9658 29L29.0002 36.9656L30.8745 38.8398L38.8401 30.8742Z" fill="#ADADAD"/>
	</symbol>
	<symbol id="youtube" viewBox="0 0 24 24">
	  <path d="M19.0155 3.50854H4.98449C2.23163 3.50854 0 5.74018 0 8.49304V15.5071C0 18.2599 2.23163 20.4916 4.98449 20.4916H19.0155C21.7684 20.4916 24 18.2599 24 15.5071V8.49304C24 5.74018 21.7684 3.50854 19.0155 3.50854ZM15.6445 12.3413L9.08177 15.4713C8.9069 15.5547 8.7049 15.4273 8.7049 15.2335V8.77781C8.7049 8.58133 8.91221 8.45399 9.08744 8.54281L15.6502 11.8685C15.8453 11.9674 15.8419 12.2472 15.6445 12.3413Z" fill="#F02323" />
	</symbol>
	<symbol id="vk" viewBox="0 0 24 24">
  	<path d="M12 22C17.5228 22 22 17.5228 22 12C22 6.47715 17.5228 2 12 2C6.47715 2 2 6.47715 2 12C2 17.5228 6.47715 22 12 22Z" fill="#4D76A1" />
  	<path fill-rule="evenodd" clip-rule="evenodd" d="M11.6223 16.3858H12.4071C12.4071 16.3858 12.6442 16.3598 12.7653 16.2293C12.8767 16.1095 12.8731 15.8845 12.8731 15.8845C12.8731 15.8845 12.8578 14.8314 13.3466 14.6763C13.8284 14.5235 14.4471 15.6942 15.1029 16.1443C15.5989 16.4849 15.9757 16.4102 15.9757 16.4102L17.7292 16.3858C17.7292 16.3858 18.6466 16.3293 18.2116 15.6081C18.176 15.5491 17.9583 15.0745 16.9078 14.0995C15.8083 13.0789 15.9556 13.244 17.28 11.4787C18.0867 10.4036 18.4091 9.74725 18.3084 9.46614C18.2123 9.19839 17.6191 9.26916 17.6191 9.26916L15.6447 9.28146C15.6447 9.28146 15.4983 9.2615 15.3898 9.32638C15.2837 9.39002 15.2154 9.53833 15.2154 9.53833C15.2154 9.53833 14.9029 10.3703 14.4862 11.0778C13.607 12.5707 13.2555 12.6495 13.1118 12.5568C12.7776 12.3407 12.861 11.6889 12.861 11.2257C12.861 9.77898 13.0804 9.17575 12.4337 9.0196C12.2191 8.96772 12.0611 8.9335 11.5123 8.92797C10.8078 8.92066 10.2115 8.93011 9.87388 9.09554C9.64928 9.20552 9.47601 9.45063 9.58154 9.46471C9.71202 9.48218 10.0076 9.54439 10.1643 9.75777C10.3666 10.033 10.3595 10.6512 10.3595 10.6512C10.3595 10.6512 10.4757 12.3543 10.088 12.5659C9.82183 12.711 9.45676 12.4147 8.67295 11.0603C8.27133 10.3665 7.96811 9.59965 7.96811 9.59965C7.96811 9.59965 7.90964 9.45633 7.80536 9.37968C7.6788 9.28681 7.50196 9.25722 7.50196 9.25722L5.62578 9.26952C5.62578 9.26952 5.34413 9.27736 5.24074 9.39982C5.14876 9.50874 5.23343 9.73406 5.23343 9.73406C5.23343 9.73406 6.70229 13.1705 8.36545 14.9023C9.89046 16.4901 11.6223 16.3858 11.6223 16.3858Z" fill="white" />
	</symbol>
	<symbol id="telegram" viewBox="0 0 24 24">
 		<path d="M12 22C17.5228 22 22 17.5228 22 12C22 6.47715 17.5228 2 12 2C6.47715 2 2 6.47715 2 12C2 17.5228 6.47715 22 12 22Z" fill="#039BE5" />
  	<path d="M6.57581 11.7833L16.2175 8.06576C16.665 7.9041 17.0558 8.17493 16.9108 8.8516L16.9116 8.85076L15.27 16.5849C15.1483 17.1333 14.8225 17.2666 14.3666 17.0083L11.8666 15.1658L10.6608 16.3274C10.5275 16.4608 10.415 16.5733 10.1566 16.5733L10.3341 14.0291L14.9675 9.84326C15.1691 9.66576 14.9225 9.56576 14.6566 9.74243L8.93081 13.3474L6.46247 12.5774C5.92664 12.4074 5.91497 12.0416 6.57581 11.7833Z" fill="white" />
	</symbol>
	<symbol id="artstation" viewBox="0 0 24 24">
		<path d="M5.26513 18.1369V18.9165H5.8115C5.95775 18.9165 6.07625 18.8331 6.07625 18.6902V18.3666C6.07625 18.217 5.95081 18.1369 5.79425 18.1369H5.26513ZM4.8125 20.1732V17.733H5.84638C6.27106 17.733 6.52513 17.9907 6.52513 18.2691V18.7877C6.52513 18.9827 6.39294 19.1742 6.16325 19.2647L6.57388 20.1732H6.10063L5.71419 19.3168H5.26513V20.1732" fill="#221F1F" />
		<path d="M7.41831 20.1732V18.1333H6.8125V17.733H8.42425V18.1333H7.86719V20.1732" fill="#221F1F" />
		<path d="M8.97128 19.4771V19.6337C8.97128 19.8495 9.17322 20.0132 9.43441 20.0132H9.72316C9.99128 20.0132 10.2002 19.8842 10.2002 19.6581V19.4875C10.2002 19.1115 8.85297 19.0418 8.85297 18.3979V18.1785C8.85297 17.9314 9.08622 17.7156 9.39953 17.7156H9.72316C10.0747 17.7156 10.3323 17.9488 10.3323 18.217V18.4361H10.1304V18.2516C10.1304 18.0497 9.94253 17.8965 9.70591 17.8965H9.42728C9.22197 17.8965 9.05491 18.0323 9.05491 18.2098V18.3876C9.05491 18.8678 10.4021 18.9304 10.4021 19.4597V19.6928C10.4021 19.9991 10.1201 20.1941 9.74059 20.1941H9.42728C9.04797 20.1941 8.76953 19.9504 8.76953 19.6648V19.4771" fill="#221F1F" />
		<path d="M11.4089 20.1731V17.9141H10.7266V17.7366H12.2618V17.9141H11.6108V20.1731" fill="#221F1F" />
		<path d="M12.8212 19.209H13.6706L13.2459 17.9801L12.8212 19.209ZM13.3503 17.7191L14.2102 20.1731H14.0047L13.7332 19.3899H12.7586L12.4905 20.1731H12.2852L13.1484 17.7191" fill="#221F1F" />
		<path d="M14.9245 20.1731V17.9141H14.2422V17.7366H15.7772V17.9141H15.1264V20.1731" fill="#221F1F" />
		<path d="M16.2305 20.1731H16.4322V17.7366H16.2305V20.1731Z" fill="#221F1F" />
		<path d="M18.1498 20.0132C18.3657 20.0132 18.5363 19.8495 18.5363 19.6337V18.2762C18.5363 18.0602 18.3657 17.8967 18.1498 17.8967H17.6938C17.478 17.8967 17.3074 18.0602 17.3074 18.2762V19.6337C17.3074 19.8495 17.478 20.0132 17.6938 20.0132H18.1498ZM17.6833 20.1941C17.3492 20.1941 17.1055 19.9504 17.1055 19.665V18.2447C17.1055 17.9593 17.3492 17.7156 17.6833 17.7156H18.1673C18.498 17.7156 18.7382 17.9593 18.7382 18.2447V19.665C18.7382 19.9504 18.498 20.1941 18.1673 20.1941" fill="#221F1F" />
		<path d="M19.4141 20.1732V17.7366H19.6229L20.8447 19.8182V17.733H21.0466V20.1732H20.8378L19.616 18.0882V20.1732" fill="#221F1F" />
		<path d="M3.11994 19.2298H3.71506L3.41225 18.2829L3.11994 19.2298ZM3.6455 17.7261L4.46713 20.1731H4.0145L3.8405 19.6301H2.9945L2.82763 20.1731H2.375L3.19644 17.7261" fill="#221F1F" />
		<path d="M4.58984 13.2758L5.79266 15.3549L5.79284 15.3553C6.02984 15.8244 6.51566 16.1464 7.07722 16.1464L7.07834 16.1462V16.1464H15.0615L13.4048 13.2758" fill="#13AEEF" />
		<path d="M18.8307 13.2906C18.8307 13.0031 18.7462 12.7356 18.6009 12.511L13.9227 4.3787C13.6812 3.92383 13.2029 3.61389 12.6519 3.61389H10.1797L17.4056 16.1338L18.5446 14.1611C18.7694 13.7831 18.8307 13.6159 18.8307 13.2906Z" fill="#13AEEF" />
		<path d="M12.2289 11.2363L8.99922 5.64221L5.76953 11.2363" fill="#13AEEF" />
	</symbol>
	<symbol id="search" viewBox="0 0 24 24">
		<path fill-rule="evenodd" clip-rule="evenodd" d="M10 18C5.58172 18 2 14.4183 2 10C2 5.58172 5.58172 2 10 2C14.4183 2 18 5.58172 18 10C18 11.8487 17.3729 13.551 16.3199 14.9056L21.7071 20.2929L20.2929 21.7071L14.9056 16.3199C13.551 17.3729 11.8487 18 10 18ZM16 10C16 13.3137 13.3137 16 10 16C6.68629 16 4 13.3137 4 10C4 6.68629 6.68629 4 10 4C13.3137 4 16 6.68629 16 10Z"/>
	</symbol>
	<symbol id="btnBorder" viewBox="0 0 16 60">
 	 <path d="M2.8042 0H0V60H15.3191V12.5149L2.8042 0Z"/>
	</symbol>
	<symbol id="btnTransparent" viewBox="0 0 316 50">
 	 <path d="M305.831 0.5L315.5 10.1689V49.5H10.1689L0.5 39.8311V0.5H305.831Z" stroke="#F02323" />
	</symbol>
	<symbol id="close" viewBox="0 0 15 15">
  <path d="M12.0377 13.9229C12.5584 14.4436 13.4026 14.4436 13.9233 13.9229C14.444 13.4022 14.444 12.5579 13.9233 12.0372L9.20938 7.32335L13.9234 2.60935C14.4441 2.08865 14.4441 1.24443 13.9234 0.723732C13.4027 0.203034 12.5585 0.203033 12.0378 0.723732L7.32376 5.43773L2.60956 0.723532C2.08886 0.202833 1.24464 0.202833 0.723944 0.723532C0.203245 1.24423 0.203245 2.08845 0.723944 2.60915L5.43814 7.32335L0.724052 12.0374C0.203353 12.5581 0.203353 13.4024 0.724052 13.9231C1.24475 14.4438 2.08897 14.4438 2.60967 13.9231L7.32376 9.20897L12.0377 13.9229Z"/>
	</symbol>
	<symbol id="time" viewBox="0 0 48 48">
  	<path fill-rule="evenodd" clip-rule="evenodd" d="M14 42H34C38.418 42 42 38.418 42 34V14C42 9.582 38.418 6 34 6H14C9.582 6 6 9.582 6 14V34C6 38.418 9.582 42 14 42Z" stroke="#F02323" stroke-width="2.5" stroke-linecap="round" stroke-linejoin="round" />
  	<path d="M11 24H12" stroke="#F02323" stroke-width="2.5" stroke-linecap="round" stroke-linejoin="round" />
  	<path d="M37 24H36" stroke="#F02323" stroke-width="2.5" stroke-linecap="round" stroke-linejoin="round" />
  	<path d="M15.5202 32.4801L14.8002 33.2001" stroke="#F02323" stroke-width="2.5" stroke-linecap="round" stroke-linejoin="round" />
  	<path d="M32.4798 15.5199L33.1998 14.7999" stroke="#F02323" stroke-width="2.5" stroke-linecap="round" stroke-linejoin="round" />
  	<path d="M24 36V37" stroke="#F02323" stroke-width="2.5" stroke-linecap="round" stroke-linejoin="round" />
  	<path d="M24 11V12" stroke="#F02323" stroke-width="2.5" stroke-linecap="round" stroke-linejoin="round" />
  	<path d="M32.4798 32.4801L33.1998 33.2001" stroke="#F02323" stroke-width="2.5" stroke-linecap="round" stroke-linejoin="round" />
  	<path d="M14.8002 14.7999L15.5202 15.5199" stroke="#F02323" stroke-width="2.5" stroke-linecap="round" stroke-linejoin="round" />
  	<path d="M28 28L24 24V18" stroke="#F02323" stroke-width="2.5" stroke-linecap="round" stroke-linejoin="round" />
	</symbol>

	<symbol id="time-intensive" viewBox="0 0 21 20">
  <path fill-rule="evenodd" clip-rule="evenodd" d="M0.8125 10C0.8125 4.61479 5.17729 0.25 10.5625 0.25C15.9477 0.25 20.3125 4.61479 20.3125 10C20.3125 15.3852 15.9477 19.75 10.5625 19.75C5.17729 19.75 0.8125 15.3852 0.8125 10ZM10.5625 1.75C6.00571 1.75 2.3125 5.44321 2.3125 10C2.3125 14.5568 6.00571 18.25 10.5625 18.25C15.1193 18.25 18.8125 14.5568 18.8125 10C18.8125 5.44321 15.1193 1.75 10.5625 1.75Z" fill="#F02323" />
  <path fill-rule="evenodd" clip-rule="evenodd" d="M10.5625 6.25C10.9767 6.25 11.3125 6.58579 11.3125 7V9.68934L13.0928 11.4697C13.3857 11.7626 13.3857 12.2374 13.0928 12.5303C12.7999 12.8232 12.3251 12.8232 12.0322 12.5303L10.0322 10.5303C9.89152 10.3897 9.8125 10.1989 9.8125 10V7C9.8125 6.58579 10.1483 6.25 10.5625 6.25Z" fill="#F02323" />
  <path fill-rule="evenodd" clip-rule="evenodd" d="M3.3125 10C3.3125 9.58579 3.64829 9.25 4.0625 9.25H4.5625C4.97671 9.25 5.3125 9.58579 5.3125 10C5.3125 10.4142 4.97671 10.75 4.5625 10.75H4.0625C3.64829 10.75 3.3125 10.4142 3.3125 10Z" fill="#F02323" />
  <path fill-rule="evenodd" clip-rule="evenodd" d="M15.8125 10C15.8125 9.58579 16.1483 9.25 16.5625 9.25H17.0625C17.4767 9.25 17.8125 9.58579 17.8125 10C17.8125 10.4142 17.4767 10.75 17.0625 10.75H16.5625C16.1483 10.75 15.8125 10.4142 15.8125 10Z" fill="#F02323" />
  <path fill-rule="evenodd" clip-rule="evenodd" d="M6.85322 13.7097C7.14611 14.0026 7.14611 14.4774 6.85322 14.7703L6.49322 15.1303C6.20033 15.4232 5.72545 15.4232 5.43256 15.1303C5.13967 14.8374 5.13967 14.3626 5.43256 14.0697L5.79256 13.7097C6.08545 13.4168 6.56033 13.4168 6.85322 13.7097Z" fill="#F02323" />
  <path fill-rule="evenodd" clip-rule="evenodd" d="M15.6931 4.86957C15.986 5.16247 15.986 5.63734 15.6931 5.93023L15.3331 6.29023C15.0402 6.58313 14.5653 6.58313 14.2724 6.29023C13.9795 5.99734 13.9795 5.52247 14.2724 5.22957L14.6324 4.86957C14.9253 4.57668 15.4002 4.57668 15.6931 4.86957Z" fill="#F02323" />
  <path fill-rule="evenodd" clip-rule="evenodd" d="M10.5625 15.25C10.9767 15.25 11.3125 15.5858 11.3125 16V16.5C11.3125 16.9142 10.9767 17.25 10.5625 17.25C10.1483 17.25 9.8125 16.9142 9.8125 16.5V16C9.8125 15.5858 10.1483 15.25 10.5625 15.25Z" fill="#F02323" />
  <path fill-rule="evenodd" clip-rule="evenodd" d="M10.5625 2.75C10.9767 2.75 11.3125 3.08579 11.3125 3.5V4C11.3125 4.41421 10.9767 4.75 10.5625 4.75C10.1483 4.75 9.8125 4.41421 9.8125 4V3.5C9.8125 3.08579 10.1483 2.75 10.5625 2.75Z" fill="#F02323" />
  <path fill-rule="evenodd" clip-rule="evenodd" d="M14.2724 13.7097C14.5653 13.4168 15.0402 13.4168 15.3331 13.7097L15.6931 14.0697C15.986 14.3626 15.986 14.8374 15.6931 15.1303C15.4002 15.4232 14.9253 15.4232 14.6324 15.1303L14.2724 14.7703C13.9795 14.4774 13.9795 14.0026 14.2724 13.7097Z" fill="#F02323" />
  <path fill-rule="evenodd" clip-rule="evenodd" d="M5.43256 4.86957C5.72545 4.57668 6.20033 4.57668 6.49322 4.86957L6.85322 5.22957C7.14611 5.52247 7.14611 5.99734 6.85322 6.29023C6.56033 6.58313 6.08545 6.58313 5.79256 6.29023L5.43256 5.93023C5.13967 5.63734 5.13967 5.16247 5.43256 4.86957Z" fill="#F02323" />
</symbol>




	<symbol id="arrow" viewBox="0 0 12 8">
		<path d="M5.99998 5.72406L1.13798 0.862061L0.195312 1.80473L5.99998 7.60939L11.8046 1.80473L10.862 0.862061L5.99998 5.72406Z"/>
	</symbol>
	<symbol id="arrow-slider" viewBox="0 0 15 16">
		<path d="M0.333374 8.83336H10.8217L4.98837 14.6667L6.16671 15.845L14.0117 8.00003L6.16671 0.155029L4.98837 1.33336L10.8217 7.1667H0.333374V8.83336Z"/>
	</symbol>
	<symbol id="arrow-product" viewBox="0 0 25 24">
		<path d="M21.5355 12.7206L0.71875 12.7206V11.2206L21.5355 11.2206L11.5021 1.1872L12.5628 0.126542L24.4068 11.9706L12.5628 23.8146L11.5021 22.754L21.5355 12.7206Z"/>
	</symbol>
	<symbol id="download" viewBox="0 0 16 17">
		<path d="M2 13.1668H14V14.5001H2V13.1668ZM8.66667 9.28146L12.714 5.23346L13.6567 6.17612L8 11.8335L2.34333 6.17679L3.286 5.23346L7.33333 9.28012V1.83346H8.66667V9.28146Z"/>
	</symbol>
	<symbol id="arrow-more" viewBox="0 0 16 17">
		<path d="M10.7814 7.83346L7.20541 4.25746L8.14808 3.31479L13.3334 8.50012L8.14808 13.6855L7.20541 12.7428L10.7814 9.16679H2.66675V7.83346H10.7814Z"/>
	</symbol>
	<symbol id="phone" viewBox="0 0 20 20">
		<path d="M9.99996 15.8334C10.4602 15.8334 10.8333 15.4603 10.8333 15.0001C10.8333 14.5398 10.4602 14.1667 9.99996 14.1667C9.53972 14.1667 9.16663 14.5398 9.16663 15.0001C9.16663 15.4603 9.53972 15.8334 9.99996 15.8334Z"/>
    <path d="M13.3333 18.3334C14.25 18.3334 15 17.5834 15 16.6667V3.33341C15 2.41675 14.25 1.66675 13.3333 1.66675H6.66667C5.75 1.66675 5 2.41675 5 3.33341V16.6667C5 17.5834 5.75 18.3334 6.66667 18.3334H13.3333ZM6.66667 3.33341H8.32458V5.00008H11.6579V3.33341H13.3333V16.6667H6.66667V3.33341Z" />
	</symbol>
	<symbol id="mail" viewBox="0 0 20 20">
		<path d="M3.33329 16.6666H16.6666C17.5833 16.6666 18.3333 15.9166 18.3333 14.9999V4.99992C18.3333 4.08325 17.5833 3.33325 16.6666 3.33325H3.33329C2.41663 3.33325 1.66663 4.08325 1.66663 4.99992V14.9999C1.66663 15.9166 2.41663 16.6666 3.33329 16.6666ZM16.3216 4.99992L9.99996 11.3216L3.67829 4.99992H16.3216ZM3.33329 7.01158L9.99996 13.6783L16.6666 7.01158V14.9999H3.33329V7.01158Z"/>
	</symbol>
	<symbol id="place" viewBox="0 0 20 20">
		<path d="M9.99996 18.3334C9.99996 18.3334 15.8333 13.3334 15.8333 7.50008C15.8333 4.27841 13.2216 1.66675 9.99996 1.66675C6.77829 1.66675 4.16663 4.27841 4.16663 7.50008C4.16663 13.3334 9.99996 18.3334 9.99996 18.3334ZM9.99996 3.33341C12.2975 3.33341 14.1666 5.20258 14.1666 7.50008C14.1666 11.0413 11.5379 14.3613 9.99996 16.0005C8.46163 14.3605 5.83329 11.0409 5.83329 7.50008C5.83329 5.20258 7.70246 3.33341 9.99996 3.33341Z"/>
    <path d="M9.99996 8.33341C10.4602 8.33341 10.8333 7.96032 10.8333 7.50008C10.8333 7.03984 10.4602 6.66675 9.99996 6.66675C9.53972 6.66675 9.16663 7.03984 9.16663 7.50008C9.16663 7.96032 9.53972 8.33341 9.99996 8.33341Z"/>
	</symbol>

	<symbol id="search" viewBox="0 0 24 24">
		<path fill-rule="evenodd" clip-rule="evenodd" d="M10 18C5.58172 18 2 14.4183 2 10C2 5.58172 5.58172 2 10 2C14.4183 2 18 5.58172 18 10C18 11.8487 17.3729 13.551 16.3199 14.9056L21.7071 20.2929L20.2929 21.7071L14.9056 16.3199C13.551 17.3729 11.8487 18 10 18ZM16 10C16 13.3137 13.3137 16 10 16C6.68629 16 4 13.3137 4 10C4 6.68629 6.68629 4 10 4C13.3137 4 16 6.68629 16 10Z"/>
	</symbol>


</svg>

