<svg display="none" xmlns="http://www.w3.org/2000/svg">
	<symbol id="arrow-prev" viewBox="0 0 69 60">
		<path d="M12.5151 60H69V0H0V47.4849L12.5151 60Z" />
		<path d="M69 60V61H70V60H69ZM12.5151 60L11.808 60.7071L12.1009 61H12.5151V60ZM69 0H70V-1H69V0ZM0 0V-1H-1V0H0ZM0 47.4849H-1V47.8991L-0.707108 48.192L0 47.4849ZM69 59H12.5151V61H69V59ZM68 0V60H70V0H68ZM0 1H69V-1H0V1ZM1 47.4849V0H-1V47.4849H1ZM-0.707108 48.192L11.808 60.7071L13.2222 59.2929L0.707108 46.7778L-0.707108 48.192Z" fill="#434343" />
		<path d="M30.1599 27.1258L28.2856 29L30.1599 30.8743L38.1255 38.8399L39.9998 36.9656L32.0342 29L39.9998 21.0344L38.1255 19.1602L30.1599 27.1258Z" fill="#ADADAD"/>
	</symbol>
	<symbol id="arrow-next" viewBox="0 0 69 60">
		<path d="M56.4849 0H0V60H69V12.5151L56.4849 0Z"/>
		<path d="M0 0V-1H-1V0H0ZM56.4849 0L57.192 -0.707107L56.8991 -1H56.4849V0ZM0 60H-1V61H0V60ZM69 60V61H70V60H69ZM69 12.5151H70V12.1009L69.7071 11.808L69 12.5151ZM0 1H56.4849V-1H0V1ZM1 60V0H-1V60H1ZM69 59H0V61H69V59ZM68 12.5151V60H70V12.5151H68ZM69.7071 11.808L57.192 -0.707107L55.7778 0.707107L68.2929 13.2222L69.7071 11.808Z" fill="#434343"/>
		<path d="M38.8401 30.8742L40.7144 29L38.8401 27.1257L30.8745 19.1601L29.0002 21.0344L36.9658 29L29.0002 36.9656L30.8745 38.8398L38.8401 30.8742Z" fill="#ADADAD"/>
	</symbol>
	<symbol id="youtube" viewBox="0 0 24 24">
	  <path d="M19.0155 3.50854H4.98449C2.23163 3.50854 0 5.74018 0 8.49304V15.5071C0 18.2599 2.23163 20.4916 4.98449 20.4916H19.0155C21.7684 20.4916 24 18.2599 24 15.5071V8.49304C24 5.74018 21.7684 3.50854 19.0155 3.50854ZM15.6445 12.3413L9.08177 15.4713C8.9069 15.5547 8.7049 15.4273 8.7049 15.2335V8.77781C8.7049 8.58133 8.91221 8.45399 9.08744 8.54281L15.6502 11.8685C15.8453 11.9674 15.8419 12.2472 15.6445 12.3413Z" fill="#F02323" />
	</symbol>
	<symbol id="vk" viewBox="0 0 24 24">
  	<path d="M12 22C17.5228 22 22 17.5228 22 12C22 6.47715 17.5228 2 12 2C6.47715 2 2 6.47715 2 12C2 17.5228 6.47715 22 12 22Z" fill="#4D76A1" />
  	<path fill-rule="evenodd" clip-rule="evenodd" d="M11.6223 16.3858H12.4071C12.4071 16.3858 12.6442 16.3598 12.7653 16.2293C12.8767 16.1095 12.8731 15.8845 12.8731 15.8845C12.8731 15.8845 12.8578 14.8314 13.3466 14.6763C13.8284 14.5235 14.4471 15.6942 15.1029 16.1443C15.5989 16.4849 15.9757 16.4102 15.9757 16.4102L17.7292 16.3858C17.7292 16.3858 18.6466 16.3293 18.2116 15.6081C18.176 15.5491 17.9583 15.0745 16.9078 14.0995C15.8083 13.0789 15.9556 13.244 17.28 11.4787C18.0867 10.4036 18.4091 9.74725 18.3084 9.46614C18.2123 9.19839 17.6191 9.26916 17.6191 9.26916L15.6447 9.28146C15.6447 9.28146 15.4983 9.2615 15.3898 9.32638C15.2837 9.39002 15.2154 9.53833 15.2154 9.53833C15.2154 9.53833 14.9029 10.3703 14.4862 11.0778C13.607 12.5707 13.2555 12.6495 13.1118 12.5568C12.7776 12.3407 12.861 11.6889 12.861 11.2257C12.861 9.77898 13.0804 9.17575 12.4337 9.0196C12.2191 8.96772 12.0611 8.9335 11.5123 8.92797C10.8078 8.92066 10.2115 8.93011 9.87388 9.09554C9.64928 9.20552 9.47601 9.45063 9.58154 9.46471C9.71202 9.48218 10.0076 9.54439 10.1643 9.75777C10.3666 10.033 10.3595 10.6512 10.3595 10.6512C10.3595 10.6512 10.4757 12.3543 10.088 12.5659C9.82183 12.711 9.45676 12.4147 8.67295 11.0603C8.27133 10.3665 7.96811 9.59965 7.96811 9.59965C7.96811 9.59965 7.90964 9.45633 7.80536 9.37968C7.6788 9.28681 7.50196 9.25722 7.50196 9.25722L5.62578 9.26952C5.62578 9.26952 5.34413 9.27736 5.24074 9.39982C5.14876 9.50874 5.23343 9.73406 5.23343 9.73406C5.23343 9.73406 6.70229 13.1705 8.36545 14.9023C9.89046 16.4901 11.6223 16.3858 11.6223 16.3858Z" fill="white" />
	</symbol>
	<symbol id="telegram" viewBox="0 0 24 24">
 		<path d="M12 22C17.5228 22 22 17.5228 22 12C22 6.47715 17.5228 2 12 2C6.47715 2 2 6.47715 2 12C2 17.5228 6.47715 22 12 22Z" fill="#039BE5" />
  	<path d="M6.57581 11.7833L16.2175 8.06576C16.665 7.9041 17.0558 8.17493 16.9108 8.8516L16.9116 8.85076L15.27 16.5849C15.1483 17.1333 14.8225 17.2666 14.3666 17.0083L11.8666 15.1658L10.6608 16.3274C10.5275 16.4608 10.415 16.5733 10.1566 16.5733L10.3341 14.0291L14.9675 9.84326C15.1691 9.66576 14.9225 9.56576 14.6566 9.74243L8.93081 13.3474L6.46247 12.5774C5.92664 12.4074 5.91497 12.0416 6.57581 11.7833Z" fill="white" />
	</symbol>
	<symbol id="btnBorder" viewBox="0 0 16 60">
 	 <path d="M2.8042 0H0V60H15.3191V12.5149L2.8042 0Z"/>
	</symbol>
	<symbol id="btnTransparent" viewBox="0 0 316 50">
 	 <path d="M305.831 0.5L315.5 10.1689V49.5H10.1689L0.5 39.8311V0.5H305.831Z" stroke="#F02323" />
	</symbol>
	<symbol id="close" viewBox="0 0 15 15">
  <path d="M12.0377 13.9229C12.5584 14.4436 13.4026 14.4436 13.9233 13.9229C14.444 13.4022 14.444 12.5579 13.9233 12.0372L9.20938 7.32335L13.9234 2.60935C14.4441 2.08865 14.4441 1.24443 13.9234 0.723732C13.4027 0.203034 12.5585 0.203033 12.0378 0.723732L7.32376 5.43773L2.60956 0.723532C2.08886 0.202833 1.24464 0.202833 0.723944 0.723532C0.203245 1.24423 0.203245 2.08845 0.723944 2.60915L5.43814 7.32335L0.724052 12.0374C0.203353 12.5581 0.203353 13.4024 0.724052 13.9231C1.24475 14.4438 2.08897 14.4438 2.60967 13.9231L7.32376 9.20897L12.0377 13.9229Z"/>
	</symbol>




	<symbol id="arrow" viewBox="0 0 12 8">
		<path d="M5.99998 5.72406L1.13798 0.862061L0.195312 1.80473L5.99998 7.60939L11.8046 1.80473L10.862 0.862061L5.99998 5.72406Z"/>
	</symbol>
	<symbol id="arrow-slider" viewBox="0 0 15 16">
		<path d="M0.333374 8.83336H10.8217L4.98837 14.6667L6.16671 15.845L14.0117 8.00003L6.16671 0.155029L4.98837 1.33336L10.8217 7.1667H0.333374V8.83336Z"/>
	</symbol>
	<symbol id="arrow-product" viewBox="0 0 25 24">
		<path d="M21.5355 12.7206L0.71875 12.7206V11.2206L21.5355 11.2206L11.5021 1.1872L12.5628 0.126542L24.4068 11.9706L12.5628 23.8146L11.5021 22.754L21.5355 12.7206Z"/>
	</symbol>
	<symbol id="download" viewBox="0 0 16 17">
		<path d="M2 13.1668H14V14.5001H2V13.1668ZM8.66667 9.28146L12.714 5.23346L13.6567 6.17612L8 11.8335L2.34333 6.17679L3.286 5.23346L7.33333 9.28012V1.83346H8.66667V9.28146Z"/>
	</symbol>
	<symbol id="arrow-more" viewBox="0 0 16 17">
		<path d="M10.7814 7.83346L7.20541 4.25746L8.14808 3.31479L13.3334 8.50012L8.14808 13.6855L7.20541 12.7428L10.7814 9.16679H2.66675V7.83346H10.7814Z"/>
	</symbol>
	<symbol id="phone" viewBox="0 0 20 20">
		<path d="M9.99996 15.8334C10.4602 15.8334 10.8333 15.4603 10.8333 15.0001C10.8333 14.5398 10.4602 14.1667 9.99996 14.1667C9.53972 14.1667 9.16663 14.5398 9.16663 15.0001C9.16663 15.4603 9.53972 15.8334 9.99996 15.8334Z"/>
    <path d="M13.3333 18.3334C14.25 18.3334 15 17.5834 15 16.6667V3.33341C15 2.41675 14.25 1.66675 13.3333 1.66675H6.66667C5.75 1.66675 5 2.41675 5 3.33341V16.6667C5 17.5834 5.75 18.3334 6.66667 18.3334H13.3333ZM6.66667 3.33341H8.32458V5.00008H11.6579V3.33341H13.3333V16.6667H6.66667V3.33341Z" />
	</symbol>
	<symbol id="mail" viewBox="0 0 20 20">
		<path d="M3.33329 16.6666H16.6666C17.5833 16.6666 18.3333 15.9166 18.3333 14.9999V4.99992C18.3333 4.08325 17.5833 3.33325 16.6666 3.33325H3.33329C2.41663 3.33325 1.66663 4.08325 1.66663 4.99992V14.9999C1.66663 15.9166 2.41663 16.6666 3.33329 16.6666ZM16.3216 4.99992L9.99996 11.3216L3.67829 4.99992H16.3216ZM3.33329 7.01158L9.99996 13.6783L16.6666 7.01158V14.9999H3.33329V7.01158Z"/>
	</symbol>
	<symbol id="place" viewBox="0 0 20 20">
		<path d="M9.99996 18.3334C9.99996 18.3334 15.8333 13.3334 15.8333 7.50008C15.8333 4.27841 13.2216 1.66675 9.99996 1.66675C6.77829 1.66675 4.16663 4.27841 4.16663 7.50008C4.16663 13.3334 9.99996 18.3334 9.99996 18.3334ZM9.99996 3.33341C12.2975 3.33341 14.1666 5.20258 14.1666 7.50008C14.1666 11.0413 11.5379 14.3613 9.99996 16.0005C8.46163 14.3605 5.83329 11.0409 5.83329 7.50008C5.83329 5.20258 7.70246 3.33341 9.99996 3.33341Z"/>
    <path d="M9.99996 8.33341C10.4602 8.33341 10.8333 7.96032 10.8333 7.50008C10.8333 7.03984 10.4602 6.66675 9.99996 6.66675C9.53972 6.66675 9.16663 7.03984 9.16663 7.50008C9.16663 7.96032 9.53972 8.33341 9.99996 8.33341Z"/>
	</symbol>

	<symbol id="search" viewBox="0 0 24 24">
		<path fill-rule="evenodd" clip-rule="evenodd" d="M10 18C5.58172 18 2 14.4183 2 10C2 5.58172 5.58172 2 10 2C14.4183 2 18 5.58172 18 10C18 11.8487 17.3729 13.551 16.3199 14.9056L21.7071 20.2929L20.2929 21.7071L14.9056 16.3199C13.551 17.3729 11.8487 18 10 18ZM16 10C16 13.3137 13.3137 16 10 16C6.68629 16 4 13.3137 4 10C4 6.68629 6.68629 4 10 4C13.3137 4 16 6.68629 16 10Z"/>
	</symbol>


</svg>

