<svg width="48" height="48" viewBox="0 0 48 48" fill="none" xmlns="http://www.w3.org/2000/svg">
<path fill-rule="evenodd" clip-rule="evenodd" d="M14 42H34C38.418 42 42 38.418 42 34V14C42 9.582 38.418 6 34 6H14C9.582 6 6 9.582 6 14V34C6 38.418 9.582 42 14 42Z" stroke="#F02323" stroke-width="2.5" stroke-linecap="round" stroke-linejoin="round"/>
<path d="M11 24H12" stroke="#F02323" stroke-width="2.5" stroke-linecap="round" stroke-linejoin="round"/>
<path d="M37 24H36" stroke="#F02323" stroke-width="2.5" stroke-linecap="round" stroke-linejoin="round"/>
<path d="M15.5202 32.4801L14.8002 33.2001" stroke="#F02323" stroke-width="2.5" stroke-linecap="round" stroke-linejoin="round"/>
<path d="M32.4798 15.5199L33.1998 14.7999" stroke="#F02323" stroke-width="2.5" stroke-linecap="round" stroke-linejoin="round"/>
<path d="M24 36V37" stroke="#F02323" stroke-width="2.5" stroke-linecap="round" stroke-linejoin="round"/>
<path d="M24 11V12" stroke="#F02323" stroke-width="2.5" stroke-linecap="round" stroke-linejoin="round"/>
<path d="M32.4798 32.4801L33.1998 33.2001" stroke="#F02323" stroke-width="2.5" stroke-linecap="round" stroke-linejoin="round"/>
<path d="M14.8002 14.7999L15.5202 15.5199" stroke="#F02323" stroke-width="2.5" stroke-linecap="round" stroke-linejoin="round"/>
<path d="M28 28L24 24V18" stroke="#F02323" stroke-width="2.5" stroke-linecap="round" stroke-linejoin="round"/>
</svg>
